{"title":"Pressed 2011 720p BluRay [MovieDunya]","magnet":"magnet:?xt=urn:btih:b84c88a808ee1b739630e0900ba910673f8e6a82&dn=Pressed+2011+720p+BluRay+%5BMovieDunya%5D&tr=udp%3A%2F%2Ftracker.leechers-paradise.org%3A6969&tr=udp%3A%2F%2Fzer0day.ch%3A1337&tr=udp%3A%2F%2Fopen.demonii.com%3A1337&tr=udp%3A%2F%2Ftracker.coppersurfer.tk%3A6969&tr=udp%3A%2F%2Fexodus.desync.com%3A6969","uploader":"MDunya","categoryP":"video","categoryS":"hd___movies","size":"1905583412","seeders":"1","leechers":"2","description":"\r\n\r\nGeneral\r\nFormat                                   : Matroska\r\nFormat version                           : Version 4 / Version 2\r\nFile size                                : 1.77 GiB\r\nDuration                                 : 1 h 45 min\r\nOverall bit rate                         : 2 418 kb/s\r\nMovie name                               : Pressed 2011 1080p BluRay [MovieDunya]\r\nEncoded date                             : UTC 2018-07-14 07:38:58\r\nWriting application                      : mkvmerge v24.0.0 (&apos;Beyond The Pale&apos;) 64-bit\r\nWriting library                          : libebml v1.3.6 + libmatroska v1.4.9\r\n\r\nVideo\r\nID                                       : 1\r\nFormat                                   : AVC\r\nFormat/Info                              : Advanced Video Codec\r\nFormat profile                           : High@L4.1\r\nFormat settings                          : CABAC / 5 Ref Frames\r\nFormat settings, CABAC                   : Yes\r\nFormat settings, RefFrames               : 5 frames\r\nCodec ID                                 : V_MPEG4/ISO/AVC\r\nDuration                                 : 1 h 45 min\r\nBit rate                                 : 2 200 kb/s\r\nWidth                                    : 1 280 pixels\r\nHeight                                   : 544 pixels\r\nDisplay aspect ratio                     : 2.35:1\r\nFrame rate mode                          : Constant\r\nFrame rate                               : 48.000 FPS\r\nColor space                              : YUV\r\nChroma subsampling                       : 4:2:0\r\nBit depth                                : 8 bits\r\nScan type                                : Progressive\r\nBits/(Pixel*Frame)                       : 0.066\r\nStream size                              : 1.59 GiB (90%)\r\nTitle                                    : Pressed 2011 1080p BluRay [MovieDunya]\r\nWriting library                          : x264 core 155 r2901 7d0ff22\r\nDefault                                  : Yes\r\nForced                                   : No\r\nColor range                              : Limited\r\nColor primaries                          : BT.709\r\nTransfer characteristics                 : BT.709\r\nMatrix coefficients                      : BT.709\r\n\r\nAudio\r\nID                                       : 2\r\nFormat                                   : AAC\r\nFormat/Info                              : Advanced Audio Codec\r\nFormat profile                           : LC\r\nCodec ID                                 : A_AAC-2\r\nDuration                                 : 1 h 45 min\r\nBit rate                                 : 250 kb/s\r\nChannel(s)                               : 2 channels\r\nChannel positions                        : Front: L R\r\nSampling rate                            : 48.0 kHz\r\nFrame rate                               : 46.875 FPS (1024 SPF)\r\nCompression mode                         : Lossy\r\nDelay relative to video                  : -21 ms\r\nStream size                              : 188 MiB (10%)\r\nTitle                                    : Pressed 2011 1080p BluRay [MovieDunya]\r\nLanguage                                 : English\r\nDefault                                  : Yes\r\nForced                                   : No\r\n\r\n <a href=\"\nhttps://pichub.site/image/aznwT\" rel=\"nofollow\" target=\"_NEW\">\nhttps://pichub.site/image/aznwT</a> <a href=\"\nhttps://pichub.site/image/azPqV\" rel=\"nofollow\" target=\"_NEW\">\nhttps://pichub.site/image/azPqV</a> <a href=\"\nhttps://pichub.site/image/azs0N\" rel=\"nofollow\" target=\"_NEW\">\nhttps://pichub.site/image/azs0N</a> <a href=\"\nhttps://pichub.site/image/az3FD\" rel=\"nofollow\" target=\"_NEW\">\nhttps://pichub.site/image/az3FD</a> <a href=\"\nhttps://pichub.site/image/az9ug\" rel=\"nofollow\" target=\"_NEW\">\nhttps://pichub.site/image/az9ug</a> <a href=\"\nhttps://pichub.site/image/az1EZ\" rel=\"nofollow\" target=\"_NEW\">\nhttps://pichub.site/image/az1EZ</a>","last_updated":"2018-07-14T12:03:25.307Z","parsed":{"xt":"urn:btih:b84c88a808ee1b739630e0900ba910673f8e6a82","dn":"Pressed 2011 720p BluRay [MovieDunya]","tr":["udp://exodus.desync.com:6969","udp://open.demonii.com:1337","udp://tracker.coppersurfer.tk:6969","udp://tracker.leechers-paradise.org:6969","udp://zer0day.ch:1337"],"infoHash":"b84c88a808ee1b739630e0900ba910673f8e6a82","infoHashBuffer":{"type":"Buffer","data":[184,76,136,168,8,238,27,115,150,48,224,144,11,169,16,103,63,142,106,130]},"name":"Pressed 2011 720p BluRay [MovieDunya]","announce":["udp://exodus.desync.com:6969","udp://open.demonii.com:1337","udp://tracker.coppersurfer.tk:6969","udp://tracker.leechers-paradise.org:6969","udp://zer0day.ch:1337"],"urlList":[]}}